<svg width="12" height="12" viewBox="0 0 12 12" fill="none" xmlns="http://www.w3.org/2000/svg">
<path d="M7.02918 4.51L7.48918 4.97L2.95918 9.5C2.95918 9.5 2.62621 9.62703 2.49918 9.5C2.37215 9.37297 2.49918 9.04 2.49918 9.04L7.02918 4.51ZM8.82918 1.5C8.70418 1.5 8.57418 1.55 8.47918 1.645L7.56418 2.56L9.43918 4.435L10.3542 3.52C10.5492 3.325 10.5492 3.01 10.3542 2.815L9.18418 1.645C9.08418 1.545 8.95918 1.5 8.82918 1.5ZM7.02918 3.095L1.49918 8.625C1.49918 8.625 1 10 1.49918 10.5C1.99836 11 3.37418 10.5 3.37418 10.5L8.90418 4.97L7.02918 3.095Z" fill="#FAFAFA"/>
</svg>
