<svg width="16" height="16" viewBox="0 0 16 16" fill="none" xmlns="http://www.w3.org/2000/svg">
<path d="M8.83764 11.6611C9.41403 10.5749 11.3353 10.5749 11.3353 10.5749C13.3373 10.554 13.6077 9.33849 13.7885 8.72412C13.4649 11.3383 11.4118 13.4163 8.80964 13.7778C8.62146 13.3817 8.39851 12.4885 8.83764 11.6611Z" fill="#AAAAAA"/>
<path d="M3.9205 4.40307L3.68038 4.19771C3.66039 4.1806 3.64127 4.16269 3.62306 4.14404C2.7168 5.17204 2.16699 6.5218 2.16699 7.99997C2.16699 11.1854 4.72028 13.7745 7.89194 13.8323C7.68579 13.217 7.55128 12.2198 8.06543 11.251C8.53798 10.3604 9.48876 10.0099 10.0944 9.86097C10.4251 9.77972 10.729 9.74011 10.9486 9.72039C11.0594 9.71047 11.1514 9.70534 11.2178 9.70271C11.251 9.70143 11.278 9.70073 11.298 9.70032L11.3225 9.69997H11.3291C12.1345 9.69111 12.4471 9.4534 12.5914 9.291C12.7698 9.0901 12.8398 8.85192 12.9372 8.52012L12.9498 8.47713C13.0654 8.08437 13.4344 7.83039 13.8318 7.85005C13.7952 6.39785 13.2277 5.07748 12.3163 4.07568C12.2979 4.17934 12.276 4.27571 12.2541 4.36103C12.1551 4.74695 11.989 5.16331 11.7852 5.47261C11.5858 5.77531 11.2315 6.04577 10.996 6.21498C10.8183 6.34267 10.6366 6.44875 10.487 6.53502L10.4332 6.56595C10.2981 6.6437 10.1906 6.70563 10.0883 6.77321C9.88064 6.91042 9.7561 7.03227 9.67169 7.19736C9.72303 7.38537 9.75948 7.60143 9.76007 7.82736C9.76147 8.3649 9.48631 8.78962 9.15743 9.05469C8.83385 9.31544 8.41519 9.46285 7.99099 9.45824C6.27026 9.43946 5.26097 8.03572 5.13101 6.58923C5.09323 6.16865 4.90402 5.71547 4.63962 5.29323C4.38249 4.88258 4.09185 4.56106 3.9205 4.40307Z" fill="#AAAAAA"/>
<path d="M6.00242 6.5108C5.89318 5.29501 4.95559 4.16212 4.50045 3.74765L4.24902 3.53261C5.2632 2.68005 6.57184 2.1665 8.00047 2.1665C9.29157 2.1665 10.4848 2.58598 11.4511 3.29608C11.5876 3.71056 11.3276 4.57659 11.0545 4.99107C10.9556 5.1412 10.7313 5.32758 10.4854 5.50426C9.9309 5.90262 9.23119 6.09965 8.87547 6.83317C8.77374 7.04288 8.77812 7.2478 8.827 7.42601C8.86217 7.55405 8.88463 7.6933 8.88498 7.8295C8.88615 8.26986 8.44077 8.58795 8.00047 8.58317C6.85463 8.57069 6.10452 7.64721 6.00242 6.5108Z" fill="#AAAAAA"/>
</svg>
