<svg width="28" height="28" viewBox="0 0 28 28" fill="none" xmlns="http://www.w3.org/2000/svg">
<path d="M18.9581 2.3335C19.4011 2.3335 19.7672 2.66268 19.8251 3.08976L19.8331 3.2085L19.8324 4.08233L20.7065 4.08333C22.1559 4.08383 23.331 5.25872 23.3315 6.70838L23.332 13.2257C22.802 12.9742 22.2093 12.8335 21.5837 12.8335C19.3285 12.8335 17.5003 14.6617 17.5003 16.9168C17.5003 18.0594 17.9696 19.0924 18.7259 19.8335H18.4018C16.6159 19.8335 15.167 21.2803 15.167 23.0675V23.1877C15.167 24.0523 15.4176 24.9179 15.9468 25.6722H6.71247C5.26294 25.6719 4.08784 24.497 4.08746 23.0473L4.08594 6.70872C4.08556 5.25892 5.26072 4.08333 6.71053 4.08333L7.58244 4.08233L7.5831 3.2085C7.5831 2.72525 7.97485 2.3335 8.4581 2.3335C8.90108 2.3335 9.26717 2.66268 9.32511 3.08976L9.3331 3.2085L9.33244 4.08233H12.8348L12.8354 3.2085C12.8354 2.72525 13.2271 2.3335 13.7104 2.3335C14.1533 2.3335 14.5194 2.66268 14.5774 3.08976L14.5854 3.2085L14.5848 4.08233H18.0824L18.0831 3.2085C18.0831 2.72525 18.4748 2.3335 18.9581 2.3335ZM13.1229 18.6668H8.45831L8.33957 18.6748C7.91249 18.7328 7.58331 19.0989 7.58331 19.5418C7.58331 19.9848 7.91249 20.3509 8.33957 20.4088L8.45831 20.4168H13.1229L13.2416 20.4088C13.6687 20.3509 13.9979 19.9848 13.9979 19.5418C13.9979 19.0989 13.6687 18.7328 13.2416 18.6748L13.1229 18.6668ZM18.9562 9.3335H8.45831L8.33957 9.34148C7.91249 9.39942 7.58331 9.76552 7.58331 10.2085C7.58331 10.6515 7.91249 11.0176 8.33957 11.0755L8.45831 11.0835H18.9562L19.075 11.0755C19.5021 11.0176 19.8312 10.6515 19.8312 10.2085C19.8312 9.76552 19.5021 9.39942 19.075 9.34148L18.9562 9.3335ZM7.58366 14.8752C7.58366 15.3584 7.97541 15.7502 8.45866 15.7502H15.4587C15.9419 15.7502 16.3337 15.3584 16.3337 14.8752C16.3337 14.3919 15.9419 14.0002 15.4587 14.0002H8.45866C7.97541 14.0002 7.58366 14.3919 7.58366 14.8752ZM24.5003 16.9168C24.5003 18.5277 23.1945 19.8335 21.5837 19.8335C19.9728 19.8335 18.667 18.5277 18.667 16.9168C18.667 15.306 19.9728 14.0002 21.5837 14.0002C23.1945 14.0002 24.5003 15.306 24.5003 16.9168ZM26.8337 23.1877C26.8337 25.0036 25.3337 26.8335 21.5837 26.8335C17.8337 26.8335 16.3337 25.0104 16.3337 23.1877V23.0675C16.3337 21.9253 17.2596 21.0002 18.4018 21.0002H24.7655C25.9077 21.0002 26.8337 21.9253 26.8337 23.0675V23.1877Z" fill="#FF7F50"/>
</svg>
