<svg width="24" height="24" viewBox="0 0 24 24" fill="none" xmlns="http://www.w3.org/2000/svg">
<path d="M21.9491 12.9929L21.7518 14.0294C21.5669 15.0007 20.6593 15.653 19.631 15.5537L17.5846 15.3559C16.6928 15.2697 15.933 14.6363 15.7061 13.79L15.0748 11.4347C14.1403 11.0515 13.1104 10.8764 11.985 10.9093C10.8596 10.9422 9.8128 11.178 8.84461 11.6169L8.45353 13.8216C8.30529 14.6573 7.61574 15.2807 6.74242 15.3685L4.70789 15.573C3.69273 15.6751 2.7194 15.0291 2.4308 14.0618L2.12153 13.0252C1.81369 11.9934 2.08841 10.9075 2.84271 10.1746C4.6235 8.44431 7.59252 7.57647 11.7498 7.57107C15.9131 7.56571 18.9745 8.42825 20.9341 10.1587C21.7587 10.8869 22.1448 11.965 21.9491 12.9929Z" fill="white"/>
</svg>
