<svg width="28" height="28" viewBox="0 0 28 28" fill="none" xmlns="http://www.w3.org/2000/svg">
<rect x="3" y="7" width="22" height="13.619" rx="2" stroke="#999999" stroke-width="1.5" stroke-linejoin="round"/>
<rect x="5.0957" y="9.09521" width="2.09524" height="2.09524" rx="1" fill="#999999"/>
<rect x="5.0957" y="12.2383" width="2.09524" height="2.09524" rx="1" fill="#999999"/>
<rect x="8.23828" y="9.09521" width="2.09524" height="2.09524" rx="1" fill="#999999"/>
<rect x="8.23828" y="12.2383" width="2.09524" height="2.09524" rx="1" fill="#999999"/>
<rect x="11.3818" y="9.09521" width="2.09524" height="2.09524" rx="1" fill="#999999"/>
<rect x="11.3818" y="12.2383" width="2.09524" height="2.09524" rx="1" fill="#999999"/>
<rect x="14.5244" y="9.09521" width="2.09524" height="2.09524" rx="1" fill="#999999"/>
<rect x="14.5244" y="12.2383" width="2.09524" height="2.09524" rx="1" fill="#999999"/>
<rect x="17.667" y="9.09521" width="2.09524" height="2.09524" rx="1" fill="#999999"/>
<rect x="17.667" y="12.2383" width="2.09524" height="2.09524" rx="1" fill="#999999"/>
<rect x="20.8105" y="9.09521" width="2.09524" height="2.09524" rx="1" fill="#999999"/>
<rect x="20.8105" y="12.2383" width="2.09524" height="2.09524" rx="1" fill="#999999"/>
<rect x="8.23828" y="16.4287" width="11.5238" height="2.09524" rx="1" fill="#999999"/>
</svg>
