<svg width="32" height="32" viewBox="0 0 32 32" fill="none" xmlns="http://www.w3.org/2000/svg">
<path d="M14.125 9.875C14.125 8.83947 14.966 8.00106 15.9946 8.12115C17.9134 8.3452 20.1737 8.87645 21.4209 9.68531C23.1153 10.7841 24.4359 12.3459 25.2157 14.1732C25.9955 16.0004 26.1996 18.0111 25.802 19.9509C25.4045 21.8907 24.4232 23.6726 22.9822 25.0711C21.5413 26.4696 19.7054 27.422 17.7068 27.8079C15.7082 28.1937 13.6366 27.9957 11.7539 27.2388C9.87122 26.4819 8.26208 25.2002 7.12996 23.5557C6.42093 22.5258 6.1568 21.3826 6.05841 20.1861C5.95939 18.982 6.97938 18 8.18751 18V18C9.39563 18 10.2186 18.975 10.2453 20.1828C10.2549 20.6138 10.3312 21.0058 10.5567 21.3334C11.236 22.3201 12.2014 23.0891 13.331 23.5433C14.4606 23.9974 15.7036 24.1162 16.9028 23.8847C18.102 23.6532 19.2035 23.0818 20.0681 22.2426C20.9326 21.4035 21.5214 20.3344 21.7599 19.1705C21.9985 18.0067 21.876 16.8003 21.4081 15.7039C20.9402 14.6075 20.1479 13.6705 19.1313 13.0112C18.4969 12.5998 17.1808 12.2107 15.9838 11.9763C14.9675 11.7773 14.125 10.9105 14.125 9.875V9.875Z" fill="white"/>
<path d="M10.024 11.2913C9.50595 10.891 9.50595 10.1091 10.024 9.70873L15.8987 5.16922C16.7696 4.49621 17.9301 5.51881 17.3721 6.46752L15.2982 9.993C15.1142 10.3059 15.1142 10.6941 15.2982 11.007L17.372 14.5325C17.9301 15.4812 16.7696 16.5038 15.8987 15.8308L10.024 11.2913Z" fill="white"/>
</svg>
